<svg width="64" height="64" viewBox="0 0 64 64" fill="none" xmlns="http://www.w3.org/2000/svg">
<path d="M51.7785 17.8107C54.5251 20.728 55.9998 24 55.9998 29.304C55.9998 38.6374 49.4478 47.0027 39.9198 51.1387L37.5385 47.464C46.4318 42.6534 48.1705 36.4107 48.8638 32.4747C47.4318 33.216 45.5571 33.4747 43.7198 33.304C38.9091 32.8587 35.1171 28.9094 35.1171 24C35.1171 21.5247 36.1005 19.1507 37.8508 17.4004C39.6011 15.65 41.9751 14.6667 44.4505 14.6667C47.3118 14.6667 50.0478 15.9734 51.7785 17.8107ZM25.1118 17.8107C27.8585 20.728 29.3331 24 29.3331 29.304C29.3331 38.6374 22.7811 47.0027 13.2531 51.1387L10.8718 47.464C19.7651 42.6534 21.5038 36.4107 22.1971 32.4747C20.7651 33.216 18.8905 33.4747 17.0531 33.304C12.2425 32.8587 8.45312 28.9094 8.45312 24C8.45313 21.5247 9.43645 19.1507 11.1868 17.4004C12.9371 15.65 15.3111 14.6667 17.7865 14.6667C20.6478 14.6667 23.3838 15.9734 25.1145 17.8107H25.1118Z" fill="#CE7575"/>
</svg>
