<svg width="155" height="62" viewBox="0 0 155 62" fill="none" xmlns="http://www.w3.org/2000/svg">
<path d="M3.41211 27V6.9707H15.1562L14.7461 9.08984H6.0918V15.4883H13.8027L13.3926 17.6074H6.0918V27H3.41211ZM26.2988 24.8398C26.071 25.0312 25.793 25.2682 25.4648 25.5508C25.1458 25.8242 24.7812 26.0885 24.3711 26.3438C23.9701 26.599 23.528 26.8177 23.0449 27C22.571 27.1823 22.0651 27.2734 21.5273 27.2734C21.0443 27.2734 20.5703 27.1868 20.1055 27.0137C19.6497 26.8496 19.2441 26.6035 18.8887 26.2754C18.5332 25.9382 18.2461 25.5234 18.0273 25.0312C17.8177 24.5391 17.7129 23.974 17.7129 23.3359C17.7129 22.944 17.7585 22.5475 17.8496 22.1465C17.9499 21.7454 18.1139 21.3626 18.3418 20.998C18.5697 20.6243 18.8659 20.278 19.2305 19.959C19.6042 19.6309 20.0599 19.3483 20.5977 19.1113C21.1445 18.8652 21.7871 18.6738 22.5254 18.5371C23.2637 18.4004 24.1113 18.332 25.0684 18.332H26.2988V17.0742C26.2988 16.6549 26.2259 16.2767 26.0801 15.9395C25.9342 15.6022 25.7292 15.3151 25.4648 15.0781C25.2096 14.832 24.8997 14.6452 24.5352 14.5176C24.1797 14.3809 23.7832 14.3125 23.3457 14.3125C23.0176 14.3125 22.6667 14.349 22.293 14.4219C21.9284 14.4948 21.5592 14.5996 21.1855 14.7363C20.821 14.873 20.4701 15.0326 20.1328 15.2148C19.7956 15.3971 19.4993 15.5977 19.2441 15.8164L18.998 15.6797L18.4512 13.6836C18.9798 13.3919 19.4902 13.1549 19.9824 12.9727C20.4746 12.7812 20.944 12.6309 21.3906 12.5215C21.8464 12.4121 22.2793 12.3392 22.6895 12.3027C23.0996 12.2572 23.4915 12.2344 23.8652 12.2344C25.5697 12.2344 26.832 12.5898 27.6523 13.3008C28.4818 14.0026 28.8965 15.0599 28.8965 16.4727V23.6094C28.8965 23.7279 28.9056 23.8737 28.9238 24.0469C28.9421 24.2109 28.9831 24.3704 29.0469 24.5254C29.1198 24.6803 29.2201 24.8125 29.3477 24.9219C29.4844 25.0312 29.6667 25.0859 29.8945 25.0859C30.0221 25.0859 30.1908 25.0677 30.4004 25.0312C30.61 24.9857 30.8197 24.9128 31.0293 24.8125V26.2617C30.5918 26.5625 30.1497 26.8086 29.7031 27C29.2656 27.1823 28.8418 27.2734 28.4316 27.2734C28.0579 27.2734 27.748 27.196 27.502 27.041C27.265 26.8952 27.0645 26.7038 26.9004 26.4668C26.7454 26.2298 26.6224 25.9701 26.5312 25.6875C26.4401 25.3958 26.3626 25.1133 26.2988 24.8398ZM26.2988 19.918H25.2598C24.1934 19.918 23.3411 19.9954 22.7031 20.1504C22.0742 20.2962 21.5911 20.4967 21.2539 20.752C20.9258 20.998 20.707 21.2852 20.5977 21.6133C20.4974 21.9414 20.4473 22.2832 20.4473 22.6387C20.4473 23.0215 20.502 23.3633 20.6113 23.6641C20.7207 23.9648 20.8711 24.2246 21.0625 24.4434C21.263 24.653 21.5 24.8125 21.7734 24.9219C22.0469 25.0312 22.3431 25.0859 22.6621 25.0859C22.9082 25.0859 23.1589 25.0586 23.4141 25.0039C23.6784 24.9401 23.9564 24.8353 24.248 24.6895C24.5488 24.5345 24.8633 24.3294 25.1914 24.0742C25.5286 23.819 25.8978 23.4909 26.2988 23.0898V19.918ZM44.3457 25.7695C43.7806 26.207 43.1061 26.5671 42.3223 26.8496C41.5475 27.1322 40.6999 27.2734 39.7793 27.2734C38.7949 27.2734 37.9017 27.1048 37.0996 26.7676C36.3066 26.4212 35.6276 25.9427 35.0625 25.332C34.4974 24.7214 34.0599 23.9922 33.75 23.1445C33.4492 22.2878 33.2988 21.3535 33.2988 20.3418C33.2988 19.166 33.4993 18.0814 33.9004 17.0879C34.3014 16.0944 34.8483 15.2376 35.541 14.5176C36.2428 13.7975 37.0677 13.237 38.0156 12.8359C38.9635 12.4349 39.9798 12.2344 41.0645 12.2344C41.3197 12.2344 41.5931 12.248 41.8848 12.2754C42.1855 12.2936 42.4818 12.3301 42.7734 12.3848C43.0651 12.4395 43.3477 12.5078 43.6211 12.5898C43.8945 12.6628 44.1361 12.7539 44.3457 12.8633L43.7988 15.1328L43.498 15.2695C43.3158 15.1328 43.1061 15.0052 42.8691 14.8867C42.6413 14.7682 42.3952 14.668 42.1309 14.5859C41.8757 14.5039 41.6068 14.4401 41.3242 14.3945C41.0508 14.3398 40.7819 14.3125 40.5176 14.3125C39.9069 14.3125 39.3281 14.4355 38.7812 14.6816C38.2435 14.9186 37.7695 15.2695 37.3594 15.7344C36.9492 16.1901 36.6257 16.7552 36.3887 17.4297C36.1517 18.0951 36.0332 18.8561 36.0332 19.7129C36.0332 20.5879 36.1562 21.3581 36.4023 22.0234C36.6576 22.6888 37.0039 23.2493 37.4414 23.7051C37.8789 24.1608 38.3984 24.5072 39 24.7441C39.6016 24.972 40.2533 25.0859 40.9551 25.0859C41.3743 25.0859 41.8802 25.0358 42.4727 24.9355C43.0651 24.8262 43.6895 24.612 44.3457 24.293V25.7695ZM59.6855 25.7695C59.3392 26.0156 58.9382 26.2344 58.4824 26.4258C58.0358 26.6081 57.571 26.763 57.0879 26.8906C56.6048 27.0182 56.1172 27.1139 55.625 27.1777C55.1419 27.2415 54.6908 27.2734 54.2715 27.2734C53.3418 27.2734 52.4577 27.1185 51.6191 26.8086C50.7806 26.4987 50.0469 26.043 49.418 25.4414C48.7891 24.8398 48.2878 24.097 47.9141 23.2129C47.5404 22.3197 47.3535 21.2943 47.3535 20.1367C47.3535 18.9427 47.5495 17.8581 47.9414 16.8828C48.3424 15.9076 48.8757 15.0781 49.541 14.3945C50.2064 13.7018 50.972 13.1686 51.8379 12.7949C52.7129 12.4212 53.6289 12.2344 54.5859 12.2344C55.3607 12.2344 56.0807 12.3665 56.7461 12.6309C57.4206 12.8861 58.0039 13.2734 58.4961 13.793C58.9974 14.3125 59.3893 14.9642 59.6719 15.748C59.9544 16.5228 60.0957 17.4297 60.0957 18.4688C60.0957 18.6784 60.0866 18.929 60.0684 19.2207C60.0501 19.5124 60.0137 19.8177 59.959 20.1367H50.0605C50.0605 20.9206 50.1973 21.6224 50.4707 22.2422C50.7533 22.8529 51.1452 23.3724 51.6465 23.8008C52.1569 24.2201 52.763 24.5391 53.4648 24.7578C54.1667 24.9766 54.9414 25.0859 55.7891 25.0859C55.9987 25.0859 56.2539 25.0768 56.5547 25.0586C56.8555 25.0404 57.179 25.0039 57.5254 24.9492C57.8717 24.8945 58.2318 24.8171 58.6055 24.7168C58.9792 24.6074 59.3392 24.4661 59.6855 24.293V25.7695ZM57.6348 18.5234C57.6348 17.8398 57.5391 17.2383 57.3477 16.7188C57.1562 16.1901 56.8965 15.748 56.5684 15.3926C56.2402 15.0371 55.8574 14.7682 55.4199 14.5859C54.9915 14.4036 54.5312 14.3125 54.0391 14.3125C53.4922 14.3125 52.9772 14.4264 52.4941 14.6543C52.0111 14.873 51.5872 15.1738 51.2227 15.5566C50.8672 15.9395 50.5846 16.3861 50.375 16.8965C50.1654 17.4069 50.0605 17.9492 50.0605 18.5234H57.6348ZM65.4141 14.5859H62.4883L62.707 13.1094L65.4141 12.5078V11.7969C65.4141 10.8581 65.5553 9.96484 65.8379 9.11719C66.1296 8.26953 66.5443 7.53125 67.082 6.90234C67.6198 6.26432 68.2806 5.75846 69.0645 5.38477C69.8483 5.01107 70.7415 4.82422 71.7441 4.82422C72.1178 4.82422 72.5098 4.85156 72.9199 4.90625C73.3301 4.96094 73.7266 5.05208 74.1094 5.17969L73.5898 7.28516L73.3164 7.42188C73.0156 7.26693 72.6875 7.14388 72.332 7.05273C71.9857 6.95247 71.612 6.90234 71.2109 6.90234C70.6367 6.90234 70.1445 7.01628 69.7344 7.24414C69.3333 7.46289 69.0052 7.76367 68.75 8.14648C68.4948 8.5293 68.3079 8.98047 68.1895 9.5C68.071 10.0195 68.0117 10.5755 68.0117 11.168V12.5078H72.9609L72.4141 14.5859H68.0117V27H65.4141V14.5859ZM76.4336 12.5078H79.0312V27H76.4336V12.5078ZM77.7461 9.36328C77.5182 9.36328 77.304 9.32227 77.1035 9.24023C76.903 9.1582 76.7298 9.04427 76.584 8.89844C76.4382 8.7526 76.3242 8.58398 76.2422 8.39258C76.1602 8.19206 76.1191 7.97331 76.1191 7.73633C76.1191 7.49935 76.1647 7.27604 76.2559 7.06641C76.347 6.85677 76.4655 6.67448 76.6113 6.51953C76.7663 6.36458 76.944 6.24609 77.1445 6.16406C77.3542 6.07292 77.5729 6.02734 77.8008 6.02734C78.0195 6.02734 78.2246 6.07292 78.416 6.16406C78.6165 6.24609 78.7897 6.36458 78.9355 6.51953C79.0814 6.67448 79.1953 6.85677 79.2773 7.06641C79.3594 7.26693 79.4004 7.48112 79.4004 7.70898C79.4004 7.95508 79.3548 8.18294 79.2637 8.39258C79.1725 8.5931 79.0495 8.76628 78.8945 8.91211C78.7487 9.04883 78.5755 9.1582 78.375 9.24023C78.1745 9.32227 77.9648 9.36328 77.7461 9.36328ZM85.1562 14.5859H82.2305L82.4492 13.2461C83.1602 13.1003 83.7298 12.918 84.1582 12.6992C84.5866 12.4714 84.9375 12.1888 85.2109 11.8516C85.4935 11.5143 85.7259 11.1087 85.9082 10.6348C86.0996 10.1517 86.3138 9.57747 86.5508 8.91211H87.7539V12.5078H93.0039L92.457 14.5859H87.7539V22.6797C87.7539 23.1172 87.8177 23.4909 87.9453 23.8008C88.082 24.1016 88.2689 24.3477 88.5059 24.5391C88.7428 24.7305 89.0299 24.8717 89.3672 24.9629C89.7044 25.0449 90.0781 25.0859 90.4883 25.0859C90.9076 25.0859 91.3223 25.0495 91.7324 24.9766C92.1517 24.8945 92.5482 24.7852 92.9219 24.6484V26.125C92.3477 26.4987 91.7415 26.7858 91.1035 26.9863C90.4746 27.1777 89.832 27.2734 89.1758 27.2734C88.5651 27.2734 88.0137 27.1868 87.5215 27.0137C87.0293 26.8405 86.6055 26.5898 86.25 26.2617C85.9036 25.9336 85.6348 25.528 85.4434 25.0449C85.252 24.5527 85.1562 23.9922 85.1562 23.3633V14.5859ZM96.9277 12.5078H98.9512L99.3613 15.0234C99.6803 14.7227 100.045 14.4082 100.455 14.0801C100.865 13.752 101.307 13.4512 101.781 13.1777C102.264 12.9043 102.775 12.681 103.312 12.5078C103.85 12.3255 104.402 12.2344 104.967 12.2344C105.632 12.2344 106.229 12.362 106.758 12.6172C107.296 12.8724 107.751 13.2324 108.125 13.6973C108.508 14.153 108.799 14.6999 109 15.3379C109.21 15.9668 109.314 16.6549 109.314 17.4023V27H106.717V17.6484C106.717 17.1198 106.639 16.6549 106.484 16.2539C106.339 15.8438 106.133 15.5065 105.869 15.2422C105.605 14.9688 105.29 14.7637 104.926 14.627C104.561 14.4902 104.165 14.4219 103.736 14.4219C102.98 14.4219 102.264 14.6224 101.59 15.0234C100.915 15.4245 100.227 15.9531 99.5254 16.6094V27H96.9277V12.5078ZM125.557 25.7695C125.21 26.0156 124.809 26.2344 124.354 26.4258C123.907 26.6081 123.442 26.763 122.959 26.8906C122.476 27.0182 121.988 27.1139 121.496 27.1777C121.013 27.2415 120.562 27.2734 120.143 27.2734C119.213 27.2734 118.329 27.1185 117.49 26.8086C116.652 26.4987 115.918 26.043 115.289 25.4414C114.66 24.8398 114.159 24.097 113.785 23.2129C113.411 22.3197 113.225 21.2943 113.225 20.1367C113.225 18.9427 113.421 17.8581 113.812 16.8828C114.214 15.9076 114.747 15.0781 115.412 14.3945C116.077 13.7018 116.843 13.1686 117.709 12.7949C118.584 12.4212 119.5 12.2344 120.457 12.2344C121.232 12.2344 121.952 12.3665 122.617 12.6309C123.292 12.8861 123.875 13.2734 124.367 13.793C124.868 14.3125 125.26 14.9642 125.543 15.748C125.826 16.5228 125.967 17.4297 125.967 18.4688C125.967 18.6784 125.958 18.929 125.939 19.2207C125.921 19.5124 125.885 19.8177 125.83 20.1367H115.932C115.932 20.9206 116.068 21.6224 116.342 22.2422C116.624 22.8529 117.016 23.3724 117.518 23.8008C118.028 24.2201 118.634 24.5391 119.336 24.7578C120.038 24.9766 120.812 25.0859 121.66 25.0859C121.87 25.0859 122.125 25.0768 122.426 25.0586C122.727 25.0404 123.05 25.0039 123.396 24.9492C123.743 24.8945 124.103 24.8171 124.477 24.7168C124.85 24.6074 125.21 24.4661 125.557 24.293V25.7695ZM123.506 18.5234C123.506 17.8398 123.41 17.2383 123.219 16.7188C123.027 16.1901 122.768 15.748 122.439 15.3926C122.111 15.0371 121.729 14.7682 121.291 14.5859C120.863 14.4036 120.402 14.3125 119.91 14.3125C119.363 14.3125 118.848 14.4264 118.365 14.6543C117.882 14.873 117.458 15.1738 117.094 15.5566C116.738 15.9395 116.456 16.3861 116.246 16.8965C116.036 17.4069 115.932 17.9492 115.932 18.5234H123.506ZM129.658 24.1562L129.904 23.9922C130.251 24.1836 130.615 24.3568 130.998 24.5117C131.381 24.6576 131.759 24.7806 132.133 24.8809C132.507 24.9811 132.871 25.0586 133.227 25.1133C133.591 25.168 133.928 25.1953 134.238 25.1953C134.667 25.1953 135.059 25.1452 135.414 25.0449C135.77 24.9447 136.07 24.8034 136.316 24.6211C136.572 24.4388 136.768 24.2201 136.904 23.9648C137.05 23.7096 137.123 23.4271 137.123 23.1172C137.123 22.7253 137.014 22.4017 136.795 22.1465C136.576 21.8822 136.289 21.6589 135.934 21.4766C135.578 21.2852 135.173 21.1211 134.717 20.9844C134.261 20.8477 133.796 20.7064 133.322 20.5605C132.848 20.4147 132.383 20.2507 131.928 20.0684C131.472 19.8861 131.066 19.6582 130.711 19.3848C130.355 19.1022 130.068 18.765 129.85 18.373C129.631 17.972 129.521 17.4844 129.521 16.9102C129.521 16.2721 129.663 15.6706 129.945 15.1055C130.228 14.5312 130.624 14.0345 131.135 13.6152C131.645 13.1868 132.256 12.8496 132.967 12.6035C133.687 12.3574 134.484 12.2344 135.359 12.2344C135.569 12.2344 135.82 12.2435 136.111 12.2617C136.403 12.2799 136.713 12.3118 137.041 12.3574C137.369 12.3939 137.702 12.4486 138.039 12.5215C138.385 12.5853 138.718 12.6673 139.037 12.7676L138.49 14.9004L138.162 15.0918C137.907 14.9551 137.624 14.8366 137.314 14.7363C137.014 14.6361 136.704 14.5586 136.385 14.5039C136.075 14.4401 135.77 14.3945 135.469 14.3672C135.168 14.3307 134.904 14.3125 134.676 14.3125C134.257 14.3125 133.874 14.3581 133.527 14.4492C133.19 14.5404 132.898 14.6725 132.652 14.8457C132.406 15.0098 132.215 15.2148 132.078 15.4609C131.941 15.6979 131.873 15.9714 131.873 16.2812C131.873 16.6823 131.982 17.015 132.201 17.2793C132.42 17.5436 132.712 17.7715 133.076 17.9629C133.441 18.1452 133.851 18.3047 134.307 18.4414C134.771 18.5781 135.245 18.7194 135.729 18.8652C136.212 19.0111 136.681 19.1751 137.137 19.3574C137.602 19.5397 138.016 19.7721 138.381 20.0547C138.745 20.3372 139.037 20.6836 139.256 21.0938C139.475 21.4948 139.584 21.987 139.584 22.5703C139.584 23.2539 139.429 23.8828 139.119 24.457C138.818 25.0312 138.399 25.528 137.861 25.9473C137.333 26.3665 136.708 26.6947 135.988 26.9316C135.277 27.1595 134.512 27.2734 133.691 27.2734C132.99 27.2734 132.238 27.1914 131.436 27.0273C130.643 26.8633 129.868 26.6354 129.111 26.3438L129.658 24.1562ZM143.139 24.1562L143.385 23.9922C143.731 24.1836 144.096 24.3568 144.479 24.5117C144.861 24.6576 145.24 24.7806 145.613 24.8809C145.987 24.9811 146.352 25.0586 146.707 25.1133C147.072 25.168 147.409 25.1953 147.719 25.1953C148.147 25.1953 148.539 25.1452 148.895 25.0449C149.25 24.9447 149.551 24.8034 149.797 24.6211C150.052 24.4388 150.248 24.2201 150.385 23.9648C150.531 23.7096 150.604 23.4271 150.604 23.1172C150.604 22.7253 150.494 22.4017 150.275 22.1465C150.057 21.8822 149.77 21.6589 149.414 21.4766C149.059 21.2852 148.653 21.1211 148.197 20.9844C147.742 20.8477 147.277 20.7064 146.803 20.5605C146.329 20.4147 145.864 20.2507 145.408 20.0684C144.952 19.8861 144.547 19.6582 144.191 19.3848C143.836 19.1022 143.549 18.765 143.33 18.373C143.111 17.972 143.002 17.4844 143.002 16.9102C143.002 16.2721 143.143 15.6706 143.426 15.1055C143.708 14.5312 144.105 14.0345 144.615 13.6152C145.126 13.1868 145.736 12.8496 146.447 12.6035C147.167 12.3574 147.965 12.2344 148.84 12.2344C149.049 12.2344 149.3 12.2435 149.592 12.2617C149.883 12.2799 150.193 12.3118 150.521 12.3574C150.85 12.3939 151.182 12.4486 151.52 12.5215C151.866 12.5853 152.199 12.6673 152.518 12.7676L151.971 14.9004L151.643 15.0918C151.387 14.9551 151.105 14.8366 150.795 14.7363C150.494 14.6361 150.184 14.5586 149.865 14.5039C149.555 14.4401 149.25 14.3945 148.949 14.3672C148.648 14.3307 148.384 14.3125 148.156 14.3125C147.737 14.3125 147.354 14.3581 147.008 14.4492C146.671 14.5404 146.379 14.6725 146.133 14.8457C145.887 15.0098 145.695 15.2148 145.559 15.4609C145.422 15.6979 145.354 15.9714 145.354 16.2812C145.354 16.6823 145.463 17.015 145.682 17.2793C145.9 17.5436 146.192 17.7715 146.557 17.9629C146.921 18.1452 147.331 18.3047 147.787 18.4414C148.252 18.5781 148.726 18.7194 149.209 18.8652C149.692 19.0111 150.161 19.1751 150.617 19.3574C151.082 19.5397 151.497 19.7721 151.861 20.0547C152.226 20.3372 152.518 20.6836 152.736 21.0938C152.955 21.4948 153.064 21.987 153.064 22.5703C153.064 23.2539 152.91 23.8828 152.6 24.457C152.299 25.0312 151.88 25.528 151.342 25.9473C150.813 26.3665 150.189 26.6947 149.469 26.9316C148.758 27.1595 147.992 27.2734 147.172 27.2734C146.47 27.2734 145.718 27.1914 144.916 27.0273C144.123 26.8633 143.348 26.6354 142.592 26.3438L143.139 24.1562Z" fill="#887575"/>
<path d="M28.8477 38.3555H30.7031V54H28.8477V38.3555ZM39.7266 52.457C39.5638 52.5938 39.3652 52.763 39.1309 52.9648C38.903 53.1602 38.6426 53.349 38.3496 53.5312C38.0632 53.7135 37.7474 53.8698 37.4023 54C37.0638 54.1302 36.7025 54.1953 36.3184 54.1953C35.9733 54.1953 35.6348 54.1335 35.3027 54.0098C34.9772 53.8926 34.6875 53.7168 34.4336 53.4824C34.1797 53.2415 33.9746 52.9453 33.8184 52.5938C33.6686 52.2422 33.5938 51.8385 33.5938 51.3828C33.5938 51.1029 33.6263 50.8197 33.6914 50.5332C33.763 50.2467 33.8802 49.9733 34.043 49.7129C34.2057 49.446 34.4173 49.1986 34.6777 48.9707C34.9447 48.7363 35.2702 48.5345 35.6543 48.3652C36.0449 48.1895 36.5039 48.0527 37.0312 47.9551C37.5586 47.8574 38.1641 47.8086 38.8477 47.8086H39.7266V46.9102C39.7266 46.6107 39.6745 46.3405 39.5703 46.0996C39.4661 45.8587 39.3197 45.6536 39.1309 45.4844C38.9486 45.3086 38.7272 45.1751 38.4668 45.084C38.2129 44.9863 37.9297 44.9375 37.6172 44.9375C37.3828 44.9375 37.1322 44.9635 36.8652 45.0156C36.6048 45.0677 36.3411 45.1426 36.0742 45.2402C35.8138 45.3379 35.5632 45.4518 35.3223 45.582C35.0814 45.7122 34.8698 45.8555 34.6875 46.0117L34.5117 45.9141L34.1211 44.4883C34.4987 44.2799 34.8633 44.1107 35.2148 43.9805C35.5664 43.8438 35.9017 43.7363 36.2207 43.6582C36.5462 43.5801 36.8555 43.528 37.1484 43.502C37.4414 43.4694 37.7214 43.4531 37.9883 43.4531C39.2057 43.4531 40.1074 43.707 40.6934 44.2148C41.2858 44.7161 41.582 45.4714 41.582 46.4805V51.5781C41.582 51.6628 41.5885 51.7669 41.6016 51.8906C41.6146 52.0078 41.6439 52.1217 41.6895 52.2324C41.7415 52.3431 41.8132 52.4375 41.9043 52.5156C42.002 52.5938 42.1322 52.6328 42.2949 52.6328C42.3861 52.6328 42.5065 52.6198 42.6562 52.5938C42.806 52.5612 42.9557 52.5091 43.1055 52.4375V53.4727C42.793 53.6875 42.4772 53.8633 42.1582 54C41.8457 54.1302 41.543 54.1953 41.25 54.1953C40.9831 54.1953 40.7617 54.14 40.5859 54.0293C40.4167 53.9251 40.2734 53.7884 40.1562 53.6191C40.0456 53.4499 39.9577 53.2643 39.8926 53.0625C39.8275 52.8542 39.7721 52.6523 39.7266 52.457ZM39.7266 48.9414H38.9844C38.2227 48.9414 37.6139 48.9967 37.1582 49.1074C36.709 49.2116 36.3639 49.3548 36.123 49.5371C35.8887 49.7129 35.7324 49.918 35.6543 50.1523C35.5827 50.3867 35.5469 50.6309 35.5469 50.8848C35.5469 51.1582 35.5859 51.4023 35.6641 51.6172C35.7422 51.832 35.8496 52.0176 35.9863 52.1738C36.1296 52.3236 36.2988 52.4375 36.4941 52.5156C36.6895 52.5938 36.901 52.6328 37.1289 52.6328C37.3047 52.6328 37.4837 52.6133 37.666 52.5742C37.8548 52.5286 38.0534 52.4538 38.2617 52.3496C38.4766 52.2389 38.7012 52.0924 38.9355 51.9102C39.1764 51.7279 39.4401 51.4935 39.7266 51.207V48.9414ZM45.3711 38.3555H47.2266V45.3281C47.526 45.0547 47.8223 44.804 48.1152 44.5762C48.4082 44.3483 48.7077 44.153 49.0137 43.9902C49.3262 43.821 49.6452 43.6908 49.9707 43.5996C50.2962 43.502 50.6413 43.4531 51.0059 43.4531C51.6439 43.4531 52.2135 43.5931 52.7148 43.873C53.2227 44.1465 53.6491 44.5143 53.9941 44.9766C54.3457 45.4388 54.6126 45.9727 54.7949 46.5781C54.9837 47.1771 55.0781 47.8021 55.0781 48.4531C55.0781 49.2474 54.9414 49.9928 54.668 50.6895C54.3945 51.3861 53.9941 51.9948 53.4668 52.5156C52.9395 53.0299 52.2917 53.4401 51.5234 53.7461C50.7617 54.0456 49.8926 54.1953 48.916 54.1953C48.4017 54.1953 47.8385 54.1465 47.2266 54.0488C46.6211 53.9512 46.0026 53.7852 45.3711 53.5508V38.3555ZM47.2266 52.2031C47.6172 52.3789 48.0078 52.5091 48.3984 52.5938C48.7956 52.6719 49.1667 52.7109 49.5117 52.7109C50.1107 52.7109 50.6348 52.6035 51.084 52.3887C51.5397 52.1738 51.9173 51.8874 52.2168 51.5293C52.5228 51.1647 52.7507 50.748 52.9004 50.2793C53.0501 49.8105 53.125 49.319 53.125 48.8047C53.125 48.3294 53.0599 47.8672 52.9297 47.418C52.806 46.9622 52.6204 46.5586 52.373 46.207C52.1257 45.849 51.8229 45.5625 51.4648 45.3477C51.1068 45.1263 50.6934 45.0156 50.2246 45.0156C49.8079 45.0156 49.349 45.1263 48.8477 45.3477C48.3529 45.569 47.8125 45.9727 47.2266 46.5586V52.2031ZM63.457 52.457C63.2943 52.5938 63.0957 52.763 62.8613 52.9648C62.6335 53.1602 62.373 53.349 62.0801 53.5312C61.7936 53.7135 61.4779 53.8698 61.1328 54C60.7943 54.1302 60.4329 54.1953 60.0488 54.1953C59.7038 54.1953 59.3652 54.1335 59.0332 54.0098C58.7077 53.8926 58.418 53.7168 58.1641 53.4824C57.9102 53.2415 57.7051 52.9453 57.5488 52.5938C57.3991 52.2422 57.3242 51.8385 57.3242 51.3828C57.3242 51.1029 57.3568 50.8197 57.4219 50.5332C57.4935 50.2467 57.6107 49.9733 57.7734 49.7129C57.9362 49.446 58.1478 49.1986 58.4082 48.9707C58.6751 48.7363 59.0007 48.5345 59.3848 48.3652C59.7754 48.1895 60.2344 48.0527 60.7617 47.9551C61.2891 47.8574 61.8945 47.8086 62.5781 47.8086H63.457V46.9102C63.457 46.6107 63.4049 46.3405 63.3008 46.0996C63.1966 45.8587 63.0501 45.6536 62.8613 45.4844C62.679 45.3086 62.4577 45.1751 62.1973 45.084C61.9434 44.9863 61.6602 44.9375 61.3477 44.9375C61.1133 44.9375 60.8626 44.9635 60.5957 45.0156C60.3353 45.0677 60.0716 45.1426 59.8047 45.2402C59.5443 45.3379 59.2936 45.4518 59.0527 45.582C58.8118 45.7122 58.6003 45.8555 58.418 46.0117L58.2422 45.9141L57.8516 44.4883C58.2292 44.2799 58.5938 44.1107 58.9453 43.9805C59.2969 43.8438 59.6322 43.7363 59.9512 43.6582C60.2767 43.5801 60.5859 43.528 60.8789 43.502C61.1719 43.4694 61.4518 43.4531 61.7188 43.4531C62.9362 43.4531 63.8379 43.707 64.4238 44.2148C65.0163 44.7161 65.3125 45.4714 65.3125 46.4805V51.5781C65.3125 51.6628 65.319 51.7669 65.332 51.8906C65.3451 52.0078 65.3743 52.1217 65.4199 52.2324C65.472 52.3431 65.5436 52.4375 65.6348 52.5156C65.7324 52.5938 65.8626 52.6328 66.0254 52.6328C66.1165 52.6328 66.237 52.6198 66.3867 52.5938C66.5365 52.5612 66.6862 52.5091 66.8359 52.4375V53.4727C66.5234 53.6875 66.2077 53.8633 65.8887 54C65.5762 54.1302 65.2734 54.1953 64.9805 54.1953C64.7135 54.1953 64.4922 54.14 64.3164 54.0293C64.1471 53.9251 64.0039 53.7884 63.8867 53.6191C63.776 53.4499 63.6882 53.2643 63.623 53.0625C63.5579 52.8542 63.5026 52.6523 63.457 52.457ZM63.457 48.9414H62.7148C61.9531 48.9414 61.3444 48.9967 60.8887 49.1074C60.4395 49.2116 60.0944 49.3548 59.8535 49.5371C59.6191 49.7129 59.4629 49.918 59.3848 50.1523C59.3132 50.3867 59.2773 50.6309 59.2773 50.8848C59.2773 51.1582 59.3164 51.4023 59.3945 51.6172C59.4727 51.832 59.5801 52.0176 59.7168 52.1738C59.86 52.3236 60.0293 52.4375 60.2246 52.5156C60.4199 52.5938 60.6315 52.6328 60.8594 52.6328C61.0352 52.6328 61.2142 52.6133 61.3965 52.5742C61.5853 52.5286 61.7839 52.4538 61.9922 52.3496C62.207 52.2389 62.4316 52.0924 62.666 51.9102C62.9069 51.7279 63.1706 51.4935 63.457 51.207V48.9414ZM69.1016 43.6484H70.5469L70.8398 46.7539C70.9245 46.5911 71.0124 46.4251 71.1035 46.2559C71.2012 46.0801 71.2956 45.9108 71.3867 45.748C71.4844 45.5853 71.5788 45.4323 71.6699 45.2891C71.7611 45.1458 71.8424 45.0221 71.9141 44.918C72.0573 44.7161 72.2168 44.5273 72.3926 44.3516C72.5749 44.1693 72.7702 44.013 72.9785 43.8828C73.1868 43.7461 73.4082 43.6419 73.6426 43.5703C73.877 43.4922 74.1276 43.4531 74.3945 43.4531C74.5833 43.4531 74.7624 43.4759 74.9316 43.5215C75.1009 43.5605 75.2409 43.6289 75.3516 43.7266L75.1562 45.4648C75.0391 45.4323 74.9219 45.4128 74.8047 45.4062C74.694 45.3932 74.5833 45.3867 74.4727 45.3867C74.0104 45.3867 73.6068 45.4616 73.2617 45.6113C72.9232 45.7611 72.6172 45.9661 72.3438 46.2266C72.0768 46.4805 71.8327 46.7799 71.6113 47.125C71.3965 47.4701 71.1784 47.8411 70.957 48.2383V54H69.1016V43.6484ZM83.1445 52.457C82.9818 52.5938 82.7832 52.763 82.5488 52.9648C82.321 53.1602 82.0605 53.349 81.7676 53.5312C81.4811 53.7135 81.1654 53.8698 80.8203 54C80.4818 54.1302 80.1204 54.1953 79.7363 54.1953C79.3913 54.1953 79.0527 54.1335 78.7207 54.0098C78.3952 53.8926 78.1055 53.7168 77.8516 53.4824C77.5977 53.2415 77.3926 52.9453 77.2363 52.5938C77.0866 52.2422 77.0117 51.8385 77.0117 51.3828C77.0117 51.1029 77.0443 50.8197 77.1094 50.5332C77.181 50.2467 77.2982 49.9733 77.4609 49.7129C77.6237 49.446 77.8353 49.1986 78.0957 48.9707C78.3626 48.7363 78.6882 48.5345 79.0723 48.3652C79.4629 48.1895 79.9219 48.0527 80.4492 47.9551C80.9766 47.8574 81.582 47.8086 82.2656 47.8086H83.1445V46.9102C83.1445 46.6107 83.0924 46.3405 82.9883 46.0996C82.8841 45.8587 82.7376 45.6536 82.5488 45.4844C82.3665 45.3086 82.1452 45.1751 81.8848 45.084C81.6309 44.9863 81.3477 44.9375 81.0352 44.9375C80.8008 44.9375 80.5501 44.9635 80.2832 45.0156C80.0228 45.0677 79.7591 45.1426 79.4922 45.2402C79.2318 45.3379 78.9811 45.4518 78.7402 45.582C78.4993 45.7122 78.2878 45.8555 78.1055 46.0117L77.9297 45.9141L77.5391 44.4883C77.9167 44.2799 78.2812 44.1107 78.6328 43.9805C78.9844 43.8438 79.3197 43.7363 79.6387 43.6582C79.9642 43.5801 80.2734 43.528 80.5664 43.502C80.8594 43.4694 81.1393 43.4531 81.4062 43.4531C82.6237 43.4531 83.5254 43.707 84.1113 44.2148C84.7038 44.7161 85 45.4714 85 46.4805V51.5781C85 51.6628 85.0065 51.7669 85.0195 51.8906C85.0326 52.0078 85.0618 52.1217 85.1074 52.2324C85.1595 52.3431 85.2311 52.4375 85.3223 52.5156C85.4199 52.5938 85.5501 52.6328 85.7129 52.6328C85.804 52.6328 85.9245 52.6198 86.0742 52.5938C86.224 52.5612 86.3737 52.5091 86.5234 52.4375V53.4727C86.2109 53.6875 85.8952 53.8633 85.5762 54C85.2637 54.1302 84.9609 54.1953 84.668 54.1953C84.401 54.1953 84.1797 54.14 84.0039 54.0293C83.8346 53.9251 83.6914 53.7884 83.5742 53.6191C83.4635 53.4499 83.3757 53.2643 83.3105 53.0625C83.2454 52.8542 83.1901 52.6523 83.1445 52.457ZM83.1445 48.9414H82.4023C81.6406 48.9414 81.0319 48.9967 80.5762 49.1074C80.127 49.2116 79.7819 49.3548 79.541 49.5371C79.3066 49.7129 79.1504 49.918 79.0723 50.1523C79.0007 50.3867 78.9648 50.6309 78.9648 50.8848C78.9648 51.1582 79.0039 51.4023 79.082 51.6172C79.1602 51.832 79.2676 52.0176 79.4043 52.1738C79.5475 52.3236 79.7168 52.4375 79.9121 52.5156C80.1074 52.5938 80.319 52.6328 80.5469 52.6328C80.7227 52.6328 80.9017 52.6133 81.084 52.5742C81.2728 52.5286 81.4714 52.4538 81.6797 52.3496C81.8945 52.2389 82.1191 52.0924 82.3535 51.9102C82.5944 51.7279 82.8581 51.4935 83.1445 51.207V48.9414ZM89.502 45.1328H87.4121L87.5684 44.1758C88.0762 44.0716 88.4831 43.9414 88.7891 43.7852C89.0951 43.6224 89.3457 43.4206 89.541 43.1797C89.7428 42.9388 89.9089 42.6491 90.0391 42.3105C90.1758 41.9655 90.3288 41.5553 90.498 41.0801H91.3574V43.6484H95.1074L94.7168 45.1328H91.3574V50.9141C91.3574 51.2266 91.403 51.4935 91.4941 51.7148C91.5918 51.9297 91.7253 52.1055 91.8945 52.2422C92.0638 52.3789 92.2689 52.4798 92.5098 52.5449C92.7507 52.6035 93.0176 52.6328 93.3105 52.6328C93.61 52.6328 93.9062 52.6068 94.1992 52.5547C94.4987 52.4961 94.7819 52.418 95.0488 52.3203V53.375C94.6387 53.6419 94.2057 53.847 93.75 53.9902C93.3008 54.127 92.8418 54.1953 92.373 54.1953C91.9368 54.1953 91.543 54.1335 91.1914 54.0098C90.8398 53.8861 90.5371 53.707 90.2832 53.4727C90.0358 53.2383 89.8438 52.9486 89.707 52.6035C89.5703 52.252 89.502 51.8516 89.502 51.4023V45.1328ZM101.855 54.1953C101.087 54.1953 100.404 54.0586 99.8047 53.7852C99.2057 53.5117 98.6979 53.1439 98.2812 52.6816C97.8711 52.2194 97.5553 51.6823 97.334 51.0703C97.1191 50.4518 97.0117 49.8008 97.0117 49.1172C97.0117 48.3359 97.1484 47.6035 97.4219 46.9199C97.7018 46.2298 98.0859 45.6276 98.5742 45.1133C99.069 44.599 99.6549 44.1953 100.332 43.9023C101.009 43.6029 101.745 43.4531 102.539 43.4531C103.314 43.4531 104.004 43.5931 104.609 43.873C105.215 44.1465 105.723 44.5176 106.133 44.9863C106.549 45.4551 106.865 45.9987 107.08 46.6172C107.295 47.2292 107.402 47.8737 107.402 48.5508C107.402 49.3385 107.262 50.0775 106.982 50.7676C106.702 51.4512 106.315 52.0469 105.82 52.5547C105.326 53.0625 104.74 53.4629 104.062 53.7559C103.385 54.0488 102.65 54.1953 101.855 54.1953ZM102.266 52.7109C102.741 52.7109 103.171 52.6165 103.555 52.4277C103.945 52.2324 104.277 51.9688 104.551 51.6367C104.831 51.3047 105.046 50.9141 105.195 50.4648C105.352 50.0091 105.43 49.5208 105.43 49C105.43 48.4857 105.355 47.9876 105.205 47.5059C105.055 47.0176 104.837 46.5846 104.551 46.207C104.271 45.8229 103.926 45.5169 103.516 45.2891C103.105 45.0547 102.643 44.9375 102.129 44.9375C101.654 44.9375 101.221 45.0352 100.83 45.2305C100.446 45.4193 100.114 45.6829 99.834 46.0215C99.5605 46.3535 99.3457 46.7474 99.1895 47.2031C99.0397 47.6589 98.9648 48.1471 98.9648 48.668C98.9648 49.1823 99.0397 49.6836 99.1895 50.1719C99.3392 50.6536 99.554 51.0833 99.834 51.4609C100.12 51.8385 100.465 52.1413 100.869 52.3691C101.279 52.597 101.745 52.7109 102.266 52.7109ZM110.195 43.6484H111.641L111.934 46.7539C112.018 46.5911 112.106 46.4251 112.197 46.2559C112.295 46.0801 112.389 45.9108 112.48 45.748C112.578 45.5853 112.673 45.4323 112.764 45.2891C112.855 45.1458 112.936 45.0221 113.008 44.918C113.151 44.7161 113.311 44.5273 113.486 44.3516C113.669 44.1693 113.864 44.013 114.072 43.8828C114.281 43.7461 114.502 43.6419 114.736 43.5703C114.971 43.4922 115.221 43.4531 115.488 43.4531C115.677 43.4531 115.856 43.4759 116.025 43.5215C116.195 43.5605 116.335 43.6289 116.445 43.7266L116.25 45.4648C116.133 45.4323 116.016 45.4128 115.898 45.4062C115.788 45.3932 115.677 45.3867 115.566 45.3867C115.104 45.3867 114.701 45.4616 114.355 45.6113C114.017 45.7611 113.711 45.9661 113.438 46.2266C113.171 46.4805 112.926 46.7799 112.705 47.125C112.49 47.4701 112.272 47.8411 112.051 48.2383V54H110.195V43.6484ZM117.617 43.6484H119.707L121.973 50.6406L122.441 52.5352H122.637L123.105 50.6406L125.371 43.6484H127.285L121.465 59.2344H119.668L121.836 54H121.484L117.617 43.6484Z" fill="#CE7575"/>
</svg>
