<svg width="155" height="62" viewBox="0 0 155 62" fill="none" xmlns="http://www.w3.org/2000/svg">
<path d="M2.98047 27V6.9707H14.7246L14.3145 9.08984H5.66016V15.4883H13.3711L12.9609 17.6074H5.66016V27H2.98047ZM25.8672 24.8398C25.6393 25.0312 25.3613 25.2682 25.0332 25.5508C24.7142 25.8242 24.3496 26.0885 23.9395 26.3438C23.5384 26.599 23.0964 26.8177 22.6133 27C22.1393 27.1823 21.6335 27.2734 21.0957 27.2734C20.6126 27.2734 20.1387 27.1868 19.6738 27.0137C19.2181 26.8496 18.8125 26.6035 18.457 26.2754C18.1016 25.9382 17.8145 25.5234 17.5957 25.0312C17.3861 24.5391 17.2812 23.974 17.2812 23.3359C17.2812 22.944 17.3268 22.5475 17.418 22.1465C17.5182 21.7454 17.6823 21.3626 17.9102 20.998C18.138 20.6243 18.4342 20.278 18.7988 19.959C19.1725 19.6309 19.6283 19.3483 20.166 19.1113C20.7129 18.8652 21.3555 18.6738 22.0938 18.5371C22.832 18.4004 23.6797 18.332 24.6367 18.332H25.8672V17.0742C25.8672 16.6549 25.7943 16.2767 25.6484 15.9395C25.5026 15.6022 25.2975 15.3151 25.0332 15.0781C24.778 14.832 24.4681 14.6452 24.1035 14.5176C23.748 14.3809 23.3516 14.3125 22.9141 14.3125C22.5859 14.3125 22.235 14.349 21.8613 14.4219C21.4967 14.4948 21.1276 14.5996 20.7539 14.7363C20.3893 14.873 20.0384 15.0326 19.7012 15.2148C19.3639 15.3971 19.0677 15.5977 18.8125 15.8164L18.5664 15.6797L18.0195 13.6836C18.5482 13.3919 19.0586 13.1549 19.5508 12.9727C20.043 12.7812 20.5124 12.6309 20.959 12.5215C21.4147 12.4121 21.8477 12.3392 22.2578 12.3027C22.668 12.2572 23.0599 12.2344 23.4336 12.2344C25.138 12.2344 26.4004 12.5898 27.2207 13.3008C28.0501 14.0026 28.4648 15.0599 28.4648 16.4727V23.6094C28.4648 23.7279 28.474 23.8737 28.4922 24.0469C28.5104 24.2109 28.5514 24.3704 28.6152 24.5254C28.6882 24.6803 28.7884 24.8125 28.916 24.9219C29.0527 25.0312 29.235 25.0859 29.4629 25.0859C29.5905 25.0859 29.7591 25.0677 29.9688 25.0312C30.1784 24.9857 30.388 24.9128 30.5977 24.8125V26.2617C30.1602 26.5625 29.7181 26.8086 29.2715 27C28.834 27.1823 28.4102 27.2734 28 27.2734C27.6263 27.2734 27.3164 27.196 27.0703 27.041C26.8333 26.8952 26.6328 26.7038 26.4688 26.4668C26.3138 26.2298 26.1908 25.9701 26.0996 25.6875C26.0085 25.3958 25.931 25.1133 25.8672 24.8398ZM25.8672 19.918H24.8281C23.7617 19.918 22.9095 19.9954 22.2715 20.1504C21.6426 20.2962 21.1595 20.4967 20.8223 20.752C20.4941 20.998 20.2754 21.2852 20.166 21.6133C20.0658 21.9414 20.0156 22.2832 20.0156 22.6387C20.0156 23.0215 20.0703 23.3633 20.1797 23.6641C20.2891 23.9648 20.4395 24.2246 20.6309 24.4434C20.8314 24.653 21.0684 24.8125 21.3418 24.9219C21.6152 25.0312 21.9115 25.0859 22.2305 25.0859C22.4766 25.0859 22.7272 25.0586 22.9824 25.0039C23.2467 24.9401 23.5247 24.8353 23.8164 24.6895C24.1172 24.5345 24.4316 24.3294 24.7598 24.0742C25.097 23.819 25.4661 23.4909 25.8672 23.0898V19.918ZM43.9141 25.7695C43.349 26.207 42.6745 26.5671 41.8906 26.8496C41.1159 27.1322 40.2682 27.2734 39.3477 27.2734C38.3633 27.2734 37.4701 27.1048 36.668 26.7676C35.875 26.4212 35.196 25.9427 34.6309 25.332C34.0658 24.7214 33.6283 23.9922 33.3184 23.1445C33.0176 22.2878 32.8672 21.3535 32.8672 20.3418C32.8672 19.166 33.0677 18.0814 33.4688 17.0879C33.8698 16.0944 34.4167 15.2376 35.1094 14.5176C35.8112 13.7975 36.6361 13.237 37.584 12.8359C38.5319 12.4349 39.5482 12.2344 40.6328 12.2344C40.888 12.2344 41.1615 12.248 41.4531 12.2754C41.7539 12.2936 42.0501 12.3301 42.3418 12.3848C42.6335 12.4395 42.916 12.5078 43.1895 12.5898C43.4629 12.6628 43.7044 12.7539 43.9141 12.8633L43.3672 15.1328L43.0664 15.2695C42.8841 15.1328 42.6745 15.0052 42.4375 14.8867C42.2096 14.7682 41.9635 14.668 41.6992 14.5859C41.444 14.5039 41.1751 14.4401 40.8926 14.3945C40.6191 14.3398 40.3503 14.3125 40.0859 14.3125C39.4753 14.3125 38.8965 14.4355 38.3496 14.6816C37.8118 14.9186 37.3379 15.2695 36.9277 15.7344C36.5176 16.1901 36.194 16.7552 35.957 17.4297C35.7201 18.0951 35.6016 18.8561 35.6016 19.7129C35.6016 20.5879 35.7246 21.3581 35.9707 22.0234C36.2259 22.6888 36.5723 23.2493 37.0098 23.7051C37.4473 24.1608 37.9668 24.5072 38.5684 24.7441C39.1699 24.972 39.8216 25.0859 40.5234 25.0859C40.9427 25.0859 41.4486 25.0358 42.041 24.9355C42.6335 24.8262 43.2578 24.612 43.9141 24.293V25.7695ZM59.2539 25.7695C58.9076 26.0156 58.5065 26.2344 58.0508 26.4258C57.6042 26.6081 57.1393 26.763 56.6562 26.8906C56.1732 27.0182 55.6855 27.1139 55.1934 27.1777C54.7103 27.2415 54.2591 27.2734 53.8398 27.2734C52.9102 27.2734 52.026 27.1185 51.1875 26.8086C50.349 26.4987 49.6152 26.043 48.9863 25.4414C48.3574 24.8398 47.8561 24.097 47.4824 23.2129C47.1087 22.3197 46.9219 21.2943 46.9219 20.1367C46.9219 18.9427 47.1178 17.8581 47.5098 16.8828C47.9108 15.9076 48.444 15.0781 49.1094 14.3945C49.7747 13.7018 50.5404 13.1686 51.4062 12.7949C52.2812 12.4212 53.1973 12.2344 54.1543 12.2344C54.929 12.2344 55.6491 12.3665 56.3145 12.6309C56.9889 12.8861 57.5723 13.2734 58.0645 13.793C58.5658 14.3125 58.9577 14.9642 59.2402 15.748C59.5228 16.5228 59.6641 17.4297 59.6641 18.4688C59.6641 18.6784 59.6549 18.929 59.6367 19.2207C59.6185 19.5124 59.582 19.8177 59.5273 20.1367H49.6289C49.6289 20.9206 49.7656 21.6224 50.0391 22.2422C50.3216 22.8529 50.7135 23.3724 51.2148 23.8008C51.7253 24.2201 52.3314 24.5391 53.0332 24.7578C53.735 24.9766 54.5098 25.0859 55.3574 25.0859C55.5671 25.0859 55.8223 25.0768 56.123 25.0586C56.4238 25.0404 56.7474 25.0039 57.0938 24.9492C57.4401 24.8945 57.8001 24.8171 58.1738 24.7168C58.5475 24.6074 58.9076 24.4661 59.2539 24.293V25.7695ZM57.2031 18.5234C57.2031 17.8398 57.1074 17.2383 56.916 16.7188C56.7246 16.1901 56.4648 15.748 56.1367 15.3926C55.8086 15.0371 55.4258 14.7682 54.9883 14.5859C54.5599 14.4036 54.0996 14.3125 53.6074 14.3125C53.0605 14.3125 52.5456 14.4264 52.0625 14.6543C51.5794 14.873 51.1556 15.1738 50.791 15.5566C50.4355 15.9395 50.153 16.3861 49.9434 16.8965C49.7337 17.4069 49.6289 17.9492 49.6289 18.5234H57.2031ZM64.9824 14.5859H62.0566L62.2754 13.1094L64.9824 12.5078V11.7969C64.9824 10.8581 65.1237 9.96484 65.4062 9.11719C65.6979 8.26953 66.1126 7.53125 66.6504 6.90234C67.1882 6.26432 67.849 5.75846 68.6328 5.38477C69.4167 5.01107 70.3099 4.82422 71.3125 4.82422C71.6862 4.82422 72.0781 4.85156 72.4883 4.90625C72.8984 4.96094 73.2949 5.05208 73.6777 5.17969L73.1582 7.28516L72.8848 7.42188C72.584 7.26693 72.2559 7.14388 71.9004 7.05273C71.554 6.95247 71.1803 6.90234 70.7793 6.90234C70.2051 6.90234 69.7129 7.01628 69.3027 7.24414C68.9017 7.46289 68.5736 7.76367 68.3184 8.14648C68.0632 8.5293 67.8763 8.98047 67.7578 9.5C67.6393 10.0195 67.5801 10.5755 67.5801 11.168V12.5078H72.5293L71.9824 14.5859H67.5801V27H64.9824V14.5859ZM76.002 12.5078H78.5996V27H76.002V12.5078ZM77.3145 9.36328C77.0866 9.36328 76.8724 9.32227 76.6719 9.24023C76.4714 9.1582 76.2982 9.04427 76.1523 8.89844C76.0065 8.7526 75.8926 8.58398 75.8105 8.39258C75.7285 8.19206 75.6875 7.97331 75.6875 7.73633C75.6875 7.49935 75.7331 7.27604 75.8242 7.06641C75.9154 6.85677 76.0339 6.67448 76.1797 6.51953C76.3346 6.36458 76.5124 6.24609 76.7129 6.16406C76.9225 6.07292 77.1413 6.02734 77.3691 6.02734C77.5879 6.02734 77.793 6.07292 77.9844 6.16406C78.1849 6.24609 78.3581 6.36458 78.5039 6.51953C78.6497 6.67448 78.7637 6.85677 78.8457 7.06641C78.9277 7.26693 78.9688 7.48112 78.9688 7.70898C78.9688 7.95508 78.9232 8.18294 78.832 8.39258C78.7409 8.5931 78.6178 8.76628 78.4629 8.91211C78.3171 9.04883 78.1439 9.1582 77.9434 9.24023C77.7428 9.32227 77.5332 9.36328 77.3145 9.36328ZM84.7246 14.5859H81.7988L82.0176 13.2461C82.7285 13.1003 83.2982 12.918 83.7266 12.6992C84.1549 12.4714 84.5059 12.1888 84.7793 11.8516C85.0618 11.5143 85.2943 11.1087 85.4766 10.6348C85.668 10.1517 85.8822 9.57747 86.1191 8.91211H87.3223V12.5078H92.5723L92.0254 14.5859H87.3223V22.6797C87.3223 23.1172 87.3861 23.4909 87.5137 23.8008C87.6504 24.1016 87.8372 24.3477 88.0742 24.5391C88.3112 24.7305 88.5983 24.8717 88.9355 24.9629C89.2728 25.0449 89.6465 25.0859 90.0566 25.0859C90.4759 25.0859 90.8906 25.0495 91.3008 24.9766C91.7201 24.8945 92.1165 24.7852 92.4902 24.6484V26.125C91.916 26.4987 91.3099 26.7858 90.6719 26.9863C90.043 27.1777 89.4004 27.2734 88.7441 27.2734C88.1335 27.2734 87.582 27.1868 87.0898 27.0137C86.5977 26.8405 86.1738 26.5898 85.8184 26.2617C85.472 25.9336 85.2031 25.528 85.0117 25.0449C84.8203 24.5527 84.7246 23.9922 84.7246 23.3633V14.5859ZM96.4961 12.5078H98.5195L98.9297 15.0234C99.2487 14.7227 99.6133 14.4082 100.023 14.0801C100.434 13.752 100.876 13.4512 101.35 13.1777C101.833 12.9043 102.343 12.681 102.881 12.5078C103.419 12.3255 103.97 12.2344 104.535 12.2344C105.201 12.2344 105.798 12.362 106.326 12.6172C106.864 12.8724 107.32 13.2324 107.693 13.6973C108.076 14.153 108.368 14.6999 108.568 15.3379C108.778 15.9668 108.883 16.6549 108.883 17.4023V27H106.285V17.6484C106.285 17.1198 106.208 16.6549 106.053 16.2539C105.907 15.8438 105.702 15.5065 105.438 15.2422C105.173 14.9688 104.859 14.7637 104.494 14.627C104.13 14.4902 103.733 14.4219 103.305 14.4219C102.548 14.4219 101.833 14.6224 101.158 15.0234C100.484 15.4245 99.7956 15.9531 99.0938 16.6094V27H96.4961V12.5078ZM125.125 25.7695C124.779 26.0156 124.378 26.2344 123.922 26.4258C123.475 26.6081 123.01 26.763 122.527 26.8906C122.044 27.0182 121.557 27.1139 121.064 27.1777C120.581 27.2415 120.13 27.2734 119.711 27.2734C118.781 27.2734 117.897 27.1185 117.059 26.8086C116.22 26.4987 115.486 26.043 114.857 25.4414C114.229 24.8398 113.727 24.097 113.354 23.2129C112.98 22.3197 112.793 21.2943 112.793 20.1367C112.793 18.9427 112.989 17.8581 113.381 16.8828C113.782 15.9076 114.315 15.0781 114.98 14.3945C115.646 13.7018 116.411 13.1686 117.277 12.7949C118.152 12.4212 119.068 12.2344 120.025 12.2344C120.8 12.2344 121.52 12.3665 122.186 12.6309C122.86 12.8861 123.443 13.2734 123.936 13.793C124.437 14.3125 124.829 14.9642 125.111 15.748C125.394 16.5228 125.535 17.4297 125.535 18.4688C125.535 18.6784 125.526 18.929 125.508 19.2207C125.49 19.5124 125.453 19.8177 125.398 20.1367H115.5C115.5 20.9206 115.637 21.6224 115.91 22.2422C116.193 22.8529 116.585 23.3724 117.086 23.8008C117.596 24.2201 118.202 24.5391 118.904 24.7578C119.606 24.9766 120.381 25.0859 121.229 25.0859C121.438 25.0859 121.693 25.0768 121.994 25.0586C122.295 25.0404 122.618 25.0039 122.965 24.9492C123.311 24.8945 123.671 24.8171 124.045 24.7168C124.419 24.6074 124.779 24.4661 125.125 24.293V25.7695ZM123.074 18.5234C123.074 17.8398 122.979 17.2383 122.787 16.7188C122.596 16.1901 122.336 15.748 122.008 15.3926C121.68 15.0371 121.297 14.7682 120.859 14.5859C120.431 14.4036 119.971 14.3125 119.479 14.3125C118.932 14.3125 118.417 14.4264 117.934 14.6543C117.451 14.873 117.027 15.1738 116.662 15.5566C116.307 15.9395 116.024 16.3861 115.814 16.8965C115.605 17.4069 115.5 17.9492 115.5 18.5234H123.074ZM129.227 24.1562L129.473 23.9922C129.819 24.1836 130.184 24.3568 130.566 24.5117C130.949 24.6576 131.327 24.7806 131.701 24.8809C132.075 24.9811 132.439 25.0586 132.795 25.1133C133.16 25.168 133.497 25.1953 133.807 25.1953C134.235 25.1953 134.627 25.1452 134.982 25.0449C135.338 24.9447 135.639 24.8034 135.885 24.6211C136.14 24.4388 136.336 24.2201 136.473 23.9648C136.618 23.7096 136.691 23.4271 136.691 23.1172C136.691 22.7253 136.582 22.4017 136.363 22.1465C136.145 21.8822 135.857 21.6589 135.502 21.4766C135.146 21.2852 134.741 21.1211 134.285 20.9844C133.829 20.8477 133.365 20.7064 132.891 20.5605C132.417 20.4147 131.952 20.2507 131.496 20.0684C131.04 19.8861 130.635 19.6582 130.279 19.3848C129.924 19.1022 129.637 18.765 129.418 18.373C129.199 17.972 129.09 17.4844 129.09 16.9102C129.09 16.2721 129.231 15.6706 129.514 15.1055C129.796 14.5312 130.193 14.0345 130.703 13.6152C131.214 13.1868 131.824 12.8496 132.535 12.6035C133.255 12.3574 134.053 12.2344 134.928 12.2344C135.137 12.2344 135.388 12.2435 135.68 12.2617C135.971 12.2799 136.281 12.3118 136.609 12.3574C136.938 12.3939 137.27 12.4486 137.607 12.5215C137.954 12.5853 138.286 12.6673 138.605 12.7676L138.059 14.9004L137.73 15.0918C137.475 14.9551 137.193 14.8366 136.883 14.7363C136.582 14.6361 136.272 14.5586 135.953 14.5039C135.643 14.4401 135.338 14.3945 135.037 14.3672C134.736 14.3307 134.472 14.3125 134.244 14.3125C133.825 14.3125 133.442 14.3581 133.096 14.4492C132.758 14.5404 132.467 14.6725 132.221 14.8457C131.975 15.0098 131.783 15.2148 131.646 15.4609C131.51 15.6979 131.441 15.9714 131.441 16.2812C131.441 16.6823 131.551 17.015 131.77 17.2793C131.988 17.5436 132.28 17.7715 132.645 17.9629C133.009 18.1452 133.419 18.3047 133.875 18.4414C134.34 18.5781 134.814 18.7194 135.297 18.8652C135.78 19.0111 136.249 19.1751 136.705 19.3574C137.17 19.5397 137.585 19.7721 137.949 20.0547C138.314 20.3372 138.605 20.6836 138.824 21.0938C139.043 21.4948 139.152 21.987 139.152 22.5703C139.152 23.2539 138.997 23.8828 138.688 24.457C138.387 25.0312 137.967 25.528 137.43 25.9473C136.901 26.3665 136.277 26.6947 135.557 26.9316C134.846 27.1595 134.08 27.2734 133.26 27.2734C132.558 27.2734 131.806 27.1914 131.004 27.0273C130.211 26.8633 129.436 26.6354 128.68 26.3438L129.227 24.1562ZM142.707 24.1562L142.953 23.9922C143.299 24.1836 143.664 24.3568 144.047 24.5117C144.43 24.6576 144.808 24.7806 145.182 24.8809C145.555 24.9811 145.92 25.0586 146.275 25.1133C146.64 25.168 146.977 25.1953 147.287 25.1953C147.715 25.1953 148.107 25.1452 148.463 25.0449C148.818 24.9447 149.119 24.8034 149.365 24.6211C149.62 24.4388 149.816 24.2201 149.953 23.9648C150.099 23.7096 150.172 23.4271 150.172 23.1172C150.172 22.7253 150.062 22.4017 149.844 22.1465C149.625 21.8822 149.338 21.6589 148.982 21.4766C148.627 21.2852 148.221 21.1211 147.766 20.9844C147.31 20.8477 146.845 20.7064 146.371 20.5605C145.897 20.4147 145.432 20.2507 144.977 20.0684C144.521 19.8861 144.115 19.6582 143.76 19.3848C143.404 19.1022 143.117 18.765 142.898 18.373C142.68 17.972 142.57 17.4844 142.57 16.9102C142.57 16.2721 142.712 15.6706 142.994 15.1055C143.277 14.5312 143.673 14.0345 144.184 13.6152C144.694 13.1868 145.305 12.8496 146.016 12.6035C146.736 12.3574 147.533 12.2344 148.408 12.2344C148.618 12.2344 148.868 12.2435 149.16 12.2617C149.452 12.2799 149.762 12.3118 150.09 12.3574C150.418 12.3939 150.751 12.4486 151.088 12.5215C151.434 12.5853 151.767 12.6673 152.086 12.7676L151.539 14.9004L151.211 15.0918C150.956 14.9551 150.673 14.8366 150.363 14.7363C150.062 14.6361 149.753 14.5586 149.434 14.5039C149.124 14.4401 148.818 14.3945 148.518 14.3672C148.217 14.3307 147.952 14.3125 147.725 14.3125C147.305 14.3125 146.923 14.3581 146.576 14.4492C146.239 14.5404 145.947 14.6725 145.701 14.8457C145.455 15.0098 145.264 15.2148 145.127 15.4609C144.99 15.6979 144.922 15.9714 144.922 16.2812C144.922 16.6823 145.031 17.015 145.25 17.2793C145.469 17.5436 145.76 17.7715 146.125 17.9629C146.49 18.1452 146.9 18.3047 147.355 18.4414C147.82 18.5781 148.294 18.7194 148.777 18.8652C149.26 19.0111 149.73 19.1751 150.186 19.3574C150.65 19.5397 151.065 19.7721 151.43 20.0547C151.794 20.3372 152.086 20.6836 152.305 21.0938C152.523 21.4948 152.633 21.987 152.633 22.5703C152.633 23.2539 152.478 23.8828 152.168 24.457C151.867 25.0312 151.448 25.528 150.91 25.9473C150.382 26.3665 149.757 26.6947 149.037 26.9316C148.326 27.1595 147.561 27.2734 146.74 27.2734C146.038 27.2734 145.286 27.1914 144.484 27.0273C143.691 26.8633 142.917 26.6354 142.16 26.3438L142.707 24.1562Z" fill="#887575"/>
<path d="M1.71875 38.3555H3.57422V54H1.71875V38.3555ZM12.5977 52.457C12.4349 52.5938 12.2363 52.763 12.002 52.9648C11.7741 53.1602 11.5137 53.349 11.2207 53.5312C10.9342 53.7135 10.6185 53.8698 10.2734 54C9.9349 54.1302 9.57357 54.1953 9.18945 54.1953C8.8444 54.1953 8.50586 54.1335 8.17383 54.0098C7.84831 53.8926 7.55859 53.7168 7.30469 53.4824C7.05078 53.2415 6.8457 52.9453 6.68945 52.5938C6.53971 52.2422 6.46484 51.8385 6.46484 51.3828C6.46484 51.1029 6.4974 50.8197 6.5625 50.5332C6.63411 50.2467 6.7513 49.9733 6.91406 49.7129C7.07682 49.446 7.28841 49.1986 7.54883 48.9707C7.81576 48.7363 8.14128 48.5345 8.52539 48.3652C8.91602 48.1895 9.375 48.0527 9.90234 47.9551C10.4297 47.8574 11.0352 47.8086 11.7188 47.8086H12.5977V46.9102C12.5977 46.6107 12.5456 46.3405 12.4414 46.0996C12.3372 45.8587 12.1908 45.6536 12.002 45.4844C11.8197 45.3086 11.5983 45.1751 11.3379 45.084C11.084 44.9863 10.8008 44.9375 10.4883 44.9375C10.2539 44.9375 10.0033 44.9635 9.73633 45.0156C9.47591 45.0677 9.21224 45.1426 8.94531 45.2402C8.6849 45.3379 8.43424 45.4518 8.19336 45.582C7.95247 45.7122 7.74089 45.8555 7.55859 46.0117L7.38281 45.9141L6.99219 44.4883C7.36979 44.2799 7.73438 44.1107 8.08594 43.9805C8.4375 43.8438 8.77279 43.7363 9.0918 43.6582C9.41732 43.5801 9.72656 43.528 10.0195 43.502C10.3125 43.4694 10.5924 43.4531 10.8594 43.4531C12.0768 43.4531 12.9785 43.707 13.5645 44.2148C14.1569 44.7161 14.4531 45.4714 14.4531 46.4805V51.5781C14.4531 51.6628 14.4596 51.7669 14.4727 51.8906C14.4857 52.0078 14.515 52.1217 14.5605 52.2324C14.6126 52.3431 14.6842 52.4375 14.7754 52.5156C14.873 52.5938 15.0033 52.6328 15.166 52.6328C15.2572 52.6328 15.3776 52.6198 15.5273 52.5938C15.6771 52.5612 15.8268 52.5091 15.9766 52.4375V53.4727C15.6641 53.6875 15.3483 53.8633 15.0293 54C14.7168 54.1302 14.4141 54.1953 14.1211 54.1953C13.8542 54.1953 13.6328 54.14 13.457 54.0293C13.2878 53.9251 13.1445 53.7884 13.0273 53.6191C12.9167 53.4499 12.8288 53.2643 12.7637 53.0625C12.6986 52.8542 12.6432 52.6523 12.5977 52.457ZM12.5977 48.9414H11.8555C11.0938 48.9414 10.485 48.9967 10.0293 49.1074C9.58008 49.2116 9.23503 49.3548 8.99414 49.5371C8.75977 49.7129 8.60352 49.918 8.52539 50.1523C8.45378 50.3867 8.41797 50.6309 8.41797 50.8848C8.41797 51.1582 8.45703 51.4023 8.53516 51.6172C8.61328 51.832 8.7207 52.0176 8.85742 52.1738C9.00065 52.3236 9.16992 52.4375 9.36523 52.5156C9.56055 52.5938 9.77214 52.6328 10 52.6328C10.1758 52.6328 10.3548 52.6133 10.5371 52.5742C10.7259 52.5286 10.9245 52.4538 11.1328 52.3496C11.3477 52.2389 11.5723 52.0924 11.8066 51.9102C12.0475 51.7279 12.3112 51.4935 12.5977 51.207V48.9414ZM18.2422 38.3555H20.0977V45.3281C20.3971 45.0547 20.6934 44.804 20.9863 44.5762C21.2793 44.3483 21.5788 44.153 21.8848 43.9902C22.1973 43.821 22.5163 43.6908 22.8418 43.5996C23.1673 43.502 23.5124 43.4531 23.877 43.4531C24.515 43.4531 25.0846 43.5931 25.5859 43.873C26.0938 44.1465 26.5202 44.5143 26.8652 44.9766C27.2168 45.4388 27.4837 45.9727 27.666 46.5781C27.8548 47.1771 27.9492 47.8021 27.9492 48.4531C27.9492 49.2474 27.8125 49.9928 27.5391 50.6895C27.2656 51.3861 26.8652 51.9948 26.3379 52.5156C25.8105 53.0299 25.1628 53.4401 24.3945 53.7461C23.6328 54.0456 22.7637 54.1953 21.7871 54.1953C21.2728 54.1953 20.7096 54.1465 20.0977 54.0488C19.4922 53.9512 18.8737 53.7852 18.2422 53.5508V38.3555ZM20.0977 52.2031C20.4883 52.3789 20.8789 52.5091 21.2695 52.5938C21.6667 52.6719 22.0378 52.7109 22.3828 52.7109C22.9818 52.7109 23.5059 52.6035 23.9551 52.3887C24.4108 52.1738 24.7884 51.8874 25.0879 51.5293C25.3939 51.1647 25.6217 50.748 25.7715 50.2793C25.9212 49.8105 25.9961 49.319 25.9961 48.8047C25.9961 48.3294 25.931 47.8672 25.8008 47.418C25.6771 46.9622 25.4915 46.5586 25.2441 46.207C24.9967 45.849 24.694 45.5625 24.3359 45.3477C23.9779 45.1263 23.5645 45.0156 23.0957 45.0156C22.679 45.0156 22.2201 45.1263 21.7188 45.3477C21.224 45.569 20.6836 45.9727 20.0977 46.5586V52.2031ZM36.3281 52.457C36.1654 52.5938 35.9668 52.763 35.7324 52.9648C35.5046 53.1602 35.2441 53.349 34.9512 53.5312C34.6647 53.7135 34.349 53.8698 34.0039 54C33.6654 54.1302 33.304 54.1953 32.9199 54.1953C32.5749 54.1953 32.2363 54.1335 31.9043 54.0098C31.5788 53.8926 31.2891 53.7168 31.0352 53.4824C30.7812 53.2415 30.5762 52.9453 30.4199 52.5938C30.2702 52.2422 30.1953 51.8385 30.1953 51.3828C30.1953 51.1029 30.2279 50.8197 30.293 50.5332C30.3646 50.2467 30.4818 49.9733 30.6445 49.7129C30.8073 49.446 31.0189 49.1986 31.2793 48.9707C31.5462 48.7363 31.8717 48.5345 32.2559 48.3652C32.6465 48.1895 33.1055 48.0527 33.6328 47.9551C34.1602 47.8574 34.7656 47.8086 35.4492 47.8086H36.3281V46.9102C36.3281 46.6107 36.276 46.3405 36.1719 46.0996C36.0677 45.8587 35.9212 45.6536 35.7324 45.4844C35.5501 45.3086 35.3288 45.1751 35.0684 45.084C34.8145 44.9863 34.5312 44.9375 34.2188 44.9375C33.9844 44.9375 33.7337 44.9635 33.4668 45.0156C33.2064 45.0677 32.9427 45.1426 32.6758 45.2402C32.4154 45.3379 32.1647 45.4518 31.9238 45.582C31.6829 45.7122 31.4714 45.8555 31.2891 46.0117L31.1133 45.9141L30.7227 44.4883C31.1003 44.2799 31.4648 44.1107 31.8164 43.9805C32.168 43.8438 32.5033 43.7363 32.8223 43.6582C33.1478 43.5801 33.457 43.528 33.75 43.502C34.043 43.4694 34.3229 43.4531 34.5898 43.4531C35.8073 43.4531 36.709 43.707 37.2949 44.2148C37.8874 44.7161 38.1836 45.4714 38.1836 46.4805V51.5781C38.1836 51.6628 38.1901 51.7669 38.2031 51.8906C38.2161 52.0078 38.2454 52.1217 38.291 52.2324C38.3431 52.3431 38.4147 52.4375 38.5059 52.5156C38.6035 52.5938 38.7337 52.6328 38.8965 52.6328C38.9876 52.6328 39.1081 52.6198 39.2578 52.5938C39.4076 52.5612 39.5573 52.5091 39.707 52.4375V53.4727C39.3945 53.6875 39.0788 53.8633 38.7598 54C38.4473 54.1302 38.1445 54.1953 37.8516 54.1953C37.5846 54.1953 37.3633 54.14 37.1875 54.0293C37.0182 53.9251 36.875 53.7884 36.7578 53.6191C36.6471 53.4499 36.5592 53.2643 36.4941 53.0625C36.429 52.8542 36.3737 52.6523 36.3281 52.457ZM36.3281 48.9414H35.5859C34.8242 48.9414 34.2155 48.9967 33.7598 49.1074C33.3105 49.2116 32.9655 49.3548 32.7246 49.5371C32.4902 49.7129 32.334 49.918 32.2559 50.1523C32.1842 50.3867 32.1484 50.6309 32.1484 50.8848C32.1484 51.1582 32.1875 51.4023 32.2656 51.6172C32.3438 51.832 32.4512 52.0176 32.5879 52.1738C32.7311 52.3236 32.9004 52.4375 33.0957 52.5156C33.291 52.5938 33.5026 52.6328 33.7305 52.6328C33.9062 52.6328 34.0853 52.6133 34.2676 52.5742C34.4564 52.5286 34.6549 52.4538 34.8633 52.3496C35.0781 52.2389 35.3027 52.0924 35.5371 51.9102C35.778 51.7279 36.0417 51.4935 36.3281 51.207V48.9414ZM41.9727 43.6484H43.418L43.7109 46.7539C43.7956 46.5911 43.8835 46.4251 43.9746 46.2559C44.0723 46.0801 44.1667 45.9108 44.2578 45.748C44.3555 45.5853 44.4499 45.4323 44.541 45.2891C44.6322 45.1458 44.7135 45.0221 44.7852 44.918C44.9284 44.7161 45.0879 44.5273 45.2637 44.3516C45.446 44.1693 45.6413 44.013 45.8496 43.8828C46.0579 43.7461 46.2793 43.6419 46.5137 43.5703C46.748 43.4922 46.9987 43.4531 47.2656 43.4531C47.4544 43.4531 47.6335 43.4759 47.8027 43.5215C47.972 43.5605 48.112 43.6289 48.2227 43.7266L48.0273 45.4648C47.9102 45.4323 47.793 45.4128 47.6758 45.4062C47.5651 45.3932 47.4544 45.3867 47.3438 45.3867C46.8815 45.3867 46.4779 45.4616 46.1328 45.6113C45.7943 45.7611 45.4883 45.9661 45.2148 46.2266C44.9479 46.4805 44.7038 46.7799 44.4824 47.125C44.2676 47.4701 44.0495 47.8411 43.8281 48.2383V54H41.9727V43.6484ZM56.0156 52.457C55.8529 52.5938 55.6543 52.763 55.4199 52.9648C55.1921 53.1602 54.9316 53.349 54.6387 53.5312C54.3522 53.7135 54.0365 53.8698 53.6914 54C53.3529 54.1302 52.9915 54.1953 52.6074 54.1953C52.2624 54.1953 51.9238 54.1335 51.5918 54.0098C51.2663 53.8926 50.9766 53.7168 50.7227 53.4824C50.4688 53.2415 50.2637 52.9453 50.1074 52.5938C49.9577 52.2422 49.8828 51.8385 49.8828 51.3828C49.8828 51.1029 49.9154 50.8197 49.9805 50.5332C50.0521 50.2467 50.1693 49.9733 50.332 49.7129C50.4948 49.446 50.7064 49.1986 50.9668 48.9707C51.2337 48.7363 51.5592 48.5345 51.9434 48.3652C52.334 48.1895 52.793 48.0527 53.3203 47.9551C53.8477 47.8574 54.4531 47.8086 55.1367 47.8086H56.0156V46.9102C56.0156 46.6107 55.9635 46.3405 55.8594 46.0996C55.7552 45.8587 55.6087 45.6536 55.4199 45.4844C55.2376 45.3086 55.0163 45.1751 54.7559 45.084C54.502 44.9863 54.2188 44.9375 53.9062 44.9375C53.6719 44.9375 53.4212 44.9635 53.1543 45.0156C52.8939 45.0677 52.6302 45.1426 52.3633 45.2402C52.1029 45.3379 51.8522 45.4518 51.6113 45.582C51.3704 45.7122 51.1589 45.8555 50.9766 46.0117L50.8008 45.9141L50.4102 44.4883C50.7878 44.2799 51.1523 44.1107 51.5039 43.9805C51.8555 43.8438 52.1908 43.7363 52.5098 43.6582C52.8353 43.5801 53.1445 43.528 53.4375 43.502C53.7305 43.4694 54.0104 43.4531 54.2773 43.4531C55.4948 43.4531 56.3965 43.707 56.9824 44.2148C57.5749 44.7161 57.8711 45.4714 57.8711 46.4805V51.5781C57.8711 51.6628 57.8776 51.7669 57.8906 51.8906C57.9036 52.0078 57.9329 52.1217 57.9785 52.2324C58.0306 52.3431 58.1022 52.4375 58.1934 52.5156C58.291 52.5938 58.4212 52.6328 58.584 52.6328C58.6751 52.6328 58.7956 52.6198 58.9453 52.5938C59.0951 52.5612 59.2448 52.5091 59.3945 52.4375V53.4727C59.082 53.6875 58.7663 53.8633 58.4473 54C58.1348 54.1302 57.832 54.1953 57.5391 54.1953C57.2721 54.1953 57.0508 54.14 56.875 54.0293C56.7057 53.9251 56.5625 53.7884 56.4453 53.6191C56.3346 53.4499 56.2467 53.2643 56.1816 53.0625C56.1165 52.8542 56.0612 52.6523 56.0156 52.457ZM56.0156 48.9414H55.2734C54.5117 48.9414 53.903 48.9967 53.4473 49.1074C52.998 49.2116 52.653 49.3548 52.4121 49.5371C52.1777 49.7129 52.0215 49.918 51.9434 50.1523C51.8717 50.3867 51.8359 50.6309 51.8359 50.8848C51.8359 51.1582 51.875 51.4023 51.9531 51.6172C52.0312 51.832 52.1387 52.0176 52.2754 52.1738C52.4186 52.3236 52.5879 52.4375 52.7832 52.5156C52.9785 52.5938 53.1901 52.6328 53.418 52.6328C53.5938 52.6328 53.7728 52.6133 53.9551 52.5742C54.1439 52.5286 54.3424 52.4538 54.5508 52.3496C54.7656 52.2389 54.9902 52.0924 55.2246 51.9102C55.4655 51.7279 55.7292 51.4935 56.0156 51.207V48.9414ZM62.373 45.1328H60.2832L60.4395 44.1758C60.9473 44.0716 61.3542 43.9414 61.6602 43.7852C61.9661 43.6224 62.2168 43.4206 62.4121 43.1797C62.6139 42.9388 62.7799 42.6491 62.9102 42.3105C63.0469 41.9655 63.1999 41.5553 63.3691 41.0801H64.2285V43.6484H67.9785L67.5879 45.1328H64.2285V50.9141C64.2285 51.2266 64.2741 51.4935 64.3652 51.7148C64.4629 51.9297 64.5964 52.1055 64.7656 52.2422C64.9349 52.3789 65.14 52.4798 65.3809 52.5449C65.6217 52.6035 65.8887 52.6328 66.1816 52.6328C66.4811 52.6328 66.7773 52.6068 67.0703 52.5547C67.3698 52.4961 67.653 52.418 67.9199 52.3203V53.375C67.5098 53.6419 67.0768 53.847 66.6211 53.9902C66.1719 54.127 65.7129 54.1953 65.2441 54.1953C64.8079 54.1953 64.4141 54.1335 64.0625 54.0098C63.7109 53.8861 63.4082 53.707 63.1543 53.4727C62.9069 53.2383 62.7148 52.9486 62.5781 52.6035C62.4414 52.252 62.373 51.8516 62.373 51.4023V45.1328ZM74.7266 54.1953C73.9583 54.1953 73.2747 54.0586 72.6758 53.7852C72.0768 53.5117 71.569 53.1439 71.1523 52.6816C70.7422 52.2194 70.4264 51.6823 70.2051 51.0703C69.9902 50.4518 69.8828 49.8008 69.8828 49.1172C69.8828 48.3359 70.0195 47.6035 70.293 46.9199C70.5729 46.2298 70.957 45.6276 71.4453 45.1133C71.9401 44.599 72.526 44.1953 73.2031 43.9023C73.8802 43.6029 74.6159 43.4531 75.4102 43.4531C76.1849 43.4531 76.875 43.5931 77.4805 43.873C78.0859 44.1465 78.5938 44.5176 79.0039 44.9863C79.4206 45.4551 79.7363 45.9987 79.9512 46.6172C80.166 47.2292 80.2734 47.8737 80.2734 48.5508C80.2734 49.3385 80.1335 50.0775 79.8535 50.7676C79.5736 51.4512 79.1862 52.0469 78.6914 52.5547C78.1966 53.0625 77.6107 53.4629 76.9336 53.7559C76.2565 54.0488 75.5208 54.1953 74.7266 54.1953ZM75.1367 52.7109C75.612 52.7109 76.0417 52.6165 76.4258 52.4277C76.8164 52.2324 77.1484 51.9688 77.4219 51.6367C77.7018 51.3047 77.9167 50.9141 78.0664 50.4648C78.2227 50.0091 78.3008 49.5208 78.3008 49C78.3008 48.4857 78.2259 47.9876 78.0762 47.5059C77.9264 47.0176 77.7083 46.5846 77.4219 46.207C77.1419 45.8229 76.7969 45.5169 76.3867 45.2891C75.9766 45.0547 75.5143 44.9375 75 44.9375C74.5247 44.9375 74.0918 45.0352 73.7012 45.2305C73.3171 45.4193 72.985 45.6829 72.7051 46.0215C72.4316 46.3535 72.2168 46.7474 72.0605 47.2031C71.9108 47.6589 71.8359 48.1471 71.8359 48.668C71.8359 49.1823 71.9108 49.6836 72.0605 50.1719C72.2103 50.6536 72.4251 51.0833 72.7051 51.4609C72.9915 51.8385 73.3366 52.1413 73.7402 52.3691C74.1504 52.597 74.6159 52.7109 75.1367 52.7109ZM83.0664 43.6484H84.5117L84.8047 46.7539C84.8893 46.5911 84.9772 46.4251 85.0684 46.2559C85.166 46.0801 85.2604 45.9108 85.3516 45.748C85.4492 45.5853 85.5436 45.4323 85.6348 45.2891C85.7259 45.1458 85.8073 45.0221 85.8789 44.918C86.0221 44.7161 86.1816 44.5273 86.3574 44.3516C86.5397 44.1693 86.735 44.013 86.9434 43.8828C87.1517 43.7461 87.373 43.6419 87.6074 43.5703C87.8418 43.4922 88.0924 43.4531 88.3594 43.4531C88.5482 43.4531 88.7272 43.4759 88.8965 43.5215C89.0658 43.5605 89.2057 43.6289 89.3164 43.7266L89.1211 45.4648C89.0039 45.4323 88.8867 45.4128 88.7695 45.4062C88.6589 45.3932 88.5482 45.3867 88.4375 45.3867C87.9753 45.3867 87.5716 45.4616 87.2266 45.6113C86.888 45.7611 86.582 45.9661 86.3086 46.2266C86.0417 46.4805 85.7975 46.7799 85.5762 47.125C85.3613 47.4701 85.1432 47.8411 84.9219 48.2383V54H83.0664V43.6484ZM90.4883 43.6484H92.5781L94.8438 50.6406L95.3125 52.5352H95.5078L95.9766 50.6406L98.2422 43.6484H100.156L94.3359 59.2344H92.5391L94.707 54H94.3555L90.4883 43.6484Z" fill="#CE7575"/>
</svg>
